# xmcd
#
# Track frame offsets: 
#        150
#        12705
#        24410
#        39812
#        53495
#        65890
#        77587
#        93615
#        108945
#        120062
#        135167
#        148617
#        163542
#
# Disc length: 2591 seconds
#
# Revision: 3
# Processed by: cddbd v1.5.2PL0 Copyright (c) Steve Scherf et al.
# Submitted via: ExactAudioCopy v0.99pb4
#
DISCID=990a1d0d
DTITLE=Petticoat - Live 2
DYEAR=1991
DGENRE=Rock and Roll
TTITLE0=Let`s Have A Party
TTITLE1=Daddy Cool
TTITLE2=One Fine Day
TTITLE3=Sixteen Candles
TTITLE4=Silhouette
TTITLE5=Crazy Little Thing Called Love
TTITLE6=Komm Doch Mal Rüber
TTITLE7=Come Go With Me
TTITLE8=Great Balls Of Fire
TTITLE9=Let It Be Me
TTITLE10=Why Do Fools Fall In Love
TTITLE11=The Wanderer
TTITLE12=Blue Suede Shoes
EXTD=
EXTT0=
EXTT1=
EXTT2=
EXTT3=
EXTT4=
EXTT5=
EXTT6=
EXTT7=
EXTT8=
EXTT9=
EXTT10=
EXTT11=
EXTT12=
PLAYORDER=
